<svg id="adjustments" xmlns="http://www.w3.org/2000/svg" width="30" height="30" viewBox="0 0 40.371 40.371">
  <path id="Path_617" data-name="Path 617" d="M0,0H40.371V40.371H0Z" fill="none"/>
  <path id="Path_618" data-name="Path 618" d="M4,11.364A3.364,3.364,0,1,0,7.364,8,3.364,3.364,0,0,0,4,11.364" transform="translate(2.729 5.457)" fill="none" stroke="#e6e6e6" stroke-linecap="round" stroke-linejoin="round" stroke-width="2"/>
  <path id="Path_619" data-name="Path 619" d="M6,4v6.728" transform="translate(4.093 2.728)" fill="none" stroke="#e6e6e6" stroke-linecap="round" stroke-linejoin="round" stroke-width="2"/>
  <path id="Path_620" data-name="Path 620" d="M6,12V25.457" transform="translate(4.093 8.185)" fill="none" stroke="#e6e6e6" stroke-linecap="round" stroke-linejoin="round" stroke-width="2"/>
  <path id="Path_621" data-name="Path 621" d="M10,17.364A3.364,3.364,0,1,0,13.364,14,3.364,3.364,0,0,0,10,17.364" transform="translate(6.821 9.55)" fill="none" stroke="#e6e6e6" stroke-linecap="round" stroke-linejoin="round" stroke-width="2"/>
  <path id="Path_622" data-name="Path 622" d="M12,4V20.821" transform="translate(8.186 2.728)" fill="none" stroke="#e6e6e6" stroke-linecap="round" stroke-linejoin="round" stroke-width="2"/>
  <path id="Path_623" data-name="Path 623" d="M12,18v3.364" transform="translate(8.186 12.278)" fill="none" stroke="#e6e6e6" stroke-linecap="round" stroke-linejoin="round" stroke-width="2"/>
  <path id="Path_624" data-name="Path 624" d="M16,8.364A3.364,3.364,0,1,0,19.364,5,3.364,3.364,0,0,0,16,8.364" transform="translate(10.914 3.411)" fill="none" stroke="#e6e6e6" stroke-linecap="round" stroke-linejoin="round" stroke-width="2"/>
  <path id="Path_625" data-name="Path 625" d="M18,4V5.682" transform="translate(12.278 2.728)" fill="none" stroke="#e6e6e6" stroke-linecap="round" stroke-linejoin="round" stroke-width="2"/>
  <path id="Path_626" data-name="Path 626" d="M18,9V27.5" transform="translate(12.278 6.139)" fill="none" stroke="#e6e6e6" stroke-linecap="round" stroke-linejoin="round" stroke-width="2"/>
</svg>
