<svg id="bell-ringing" xmlns="http://www.w3.org/2000/svg" width="30" height="30" viewBox="0 0 35.676 35.676">
  <path id="Path_102" data-name="Path 102" d="M0,0H35.676V35.676H0Z" fill="none"/>
  <path id="Path_103" data-name="Path 103" d="M12.879,6A2.96,2.96,0,1,1,18.8,6a10.5,10.5,0,0,1,5.919,9v4.5a6,6,0,0,0,2.96,4.5H4a6,6,0,0,0,2.96-4.5V15a10.5,10.5,0,0,1,5.919-9" transform="translate(1.999 1.5)" fill="none" stroke="#e6e6e6" stroke-linecap="round" stroke-linejoin="round" stroke-width="2"/>
  <path id="Path_104" data-name="Path 104" d="M9,17v1.5a4.5,4.5,0,1,0,9,0V17" transform="translate(4.338 8.177)" fill="none" stroke="#e6e6e6" stroke-linecap="round" stroke-linejoin="round" stroke-width="2"/>
  <path id="Path_105" data-name="Path 105" d="M22.4,8.59A16.573,16.573,0,0,0,18.206,3" transform="translate(8.78 1.5)" fill="none" stroke="#e6e6e6" stroke-linecap="round" stroke-linejoin="round" stroke-width="2"/>
  <path id="Path_106" data-name="Path 106" d="M3,8.59A16.573,16.573,0,0,1,7.188,3" transform="translate(1.5 1.5)" fill="none" stroke="#e6e6e6" stroke-linecap="round" stroke-linejoin="round" stroke-width="2"/>
</svg>
