<svg id="apps" xmlns="http://www.w3.org/2000/svg" width="30" height="30" viewBox="0 0 40.876 40.876">
  <path id="Path_38" data-name="Path 38" d="M0,0H40.876V40.876H0Z" fill="none"/>
  <path id="Path_39" data-name="Path 39" d="M4,4,4,5.7A1.7,1.7,0,0,1,5.7,4h6.813a1.7,1.7,0,0,1,1.7,1.7v6.813a1.7,1.7,0,0,1-1.7,1.7H5.7a1.7,1.7,0,0,1-1.7-1.7Z" transform="translate(2.813 2.813)" fill="none" stroke="#d2db08" stroke-linecap="round" stroke-linejoin="round" stroke-width="2"/>
  <path id="Path_40" data-name="Path 40" d="M4,14m0,1.7A1.7,1.7,0,0,1,5.7,14h6.813a1.7,1.7,0,0,1,1.7,1.7v6.813a1.7,1.7,0,0,1-1.7,1.7H5.7a1.7,1.7,0,0,1-1.7-1.7Z" transform="translate(2.813 9.844)" fill="none" stroke="#d2db08" stroke-linecap="round" stroke-linejoin="round" stroke-width="2"/>
  <path id="Path_41" data-name="Path 41" d="M14,14m0,1.7A1.7,1.7,0,0,1,15.7,14h6.813a1.7,1.7,0,0,1,1.7,1.7v6.813a1.7,1.7,0,0,1-1.7,1.7H15.7a1.7,1.7,0,0,1-1.7-1.7Z" transform="translate(9.844 9.844)" fill="none" stroke="#d2db08" stroke-linecap="round" stroke-linejoin="round" stroke-width="2"/>
  <path id="Path_42" data-name="Path 42" d="M14,7H24.219" transform="translate(9.844 4.922)" fill="none" stroke="#d2db08" stroke-linecap="round" stroke-linejoin="round" stroke-width="2"/>
  <path id="Path_43" data-name="Path 43" d="M17,4V14.219" transform="translate(11.954 2.813)" fill="none" stroke="#d2db08" stroke-linecap="round" stroke-linejoin="round" stroke-width="2"/>
</svg>
