<svg id="target-arrow" xmlns="http://www.w3.org/2000/svg" width="30" height="30" viewBox="0 0 40.847 40.847">
  <path id="Path_48" data-name="Path 48" d="M0,0H40.847V40.847H0Z" fill="none"/>
  <path id="Path_49" data-name="Path 49" d="M12.7,12.7m-1.7,0A1.7,1.7,0,1,0,12.7,11,1.7,1.7,0,0,0,11,12.7" transform="translate(7.722 7.722)" fill="none" stroke="#e6e6e6" stroke-linecap="round" stroke-linejoin="round" stroke-width="2"/>
  <path id="Path_50" data-name="Path 50" d="M15.51,7a8.51,8.51,0,1,0,8.51,8.51" transform="translate(4.914 4.914)" fill="none" stroke="#e6e6e6" stroke-linecap="round" stroke-linejoin="round" stroke-width="2"/>
  <path id="Path_51" data-name="Path 51" d="M20.022,3.095A15.318,15.318,0,1,0,33.537,16.617" transform="translate(2.103 2.105)" fill="none" stroke="#e6e6e6" stroke-linecap="round" stroke-linejoin="round" stroke-width="2"/>
  <path id="Path_52" data-name="Path 52" d="M15,8.106v5.106h5.106l5.106-5.106H20.106V3Z" transform="translate(10.529 2.106)" fill="none" stroke="#e6e6e6" stroke-linecap="round" stroke-linejoin="round" stroke-width="2"/>
  <path id="Path_53" data-name="Path 53" d="M17.106,9,12,14.106" transform="translate(8.423 6.318)" fill="none" stroke="#e6e6e6" stroke-linecap="round" stroke-linejoin="round" stroke-width="2"/>
</svg>
