<svg id="cash-banknote" xmlns="http://www.w3.org/2000/svg" width="93.063" height="93.064" viewBox="0 0 93.063 93.064">
  <path id="Path_458" data-name="Path 458" d="M0,0H93.064V93.064H0Z" fill="none"/>
  <path id="Path_459" data-name="Path 459" d="M20.633,20.633,9,20.633A11.633,11.633,0,1,0,20.633,9,11.633,11.633,0,0,0,9,20.633" transform="translate(25.899 25.899)" fill="none" stroke="#5bdeaa" stroke-linecap="round" stroke-linejoin="round" stroke-width="4"/>
  <path id="Path_460" data-name="Path 460" d="M3,6m0,7.755A7.755,7.755,0,0,1,10.755,6H65.042A7.755,7.755,0,0,1,72.8,13.755V44.776a7.755,7.755,0,0,1-7.755,7.755H10.755A7.755,7.755,0,0,1,3,44.776Z" transform="translate(8.633 17.266)" fill="none" stroke="#e6e6e6" stroke-linecap="round" stroke-linejoin="round" stroke-width="4"/>
  <path id="Path_461" data-name="Path 461" d="M18,12h.039" transform="translate(51.797 34.532)" fill="none" stroke="#5bdeaa" stroke-linecap="round" stroke-linejoin="round" stroke-width="4"/>
  <path id="Path_462" data-name="Path 462" d="M6,12h.039" transform="translate(17.266 34.532)" fill="none" stroke="#5bdeaa" stroke-linecap="round" stroke-linejoin="round" stroke-width="4"/>
</svg>
