<svg id="chart-pie" xmlns="http://www.w3.org/2000/svg" width="30" height="30" viewBox="0 0 42.408 42.408">
  <path id="Path_627" data-name="Path 627" d="M0,0H42.408V42.408H0Z" fill="none"/>
  <path id="Path_628" data-name="Path 628" d="M15.344,3.2A15.9,15.9,0,1,0,34.428,22.288a1.767,1.767,0,0,0-1.767-1.767H20.645a3.534,3.534,0,0,1-3.534-3.534V4.618A1.59,1.59,0,0,0,15.344,3.2" transform="translate(2.326 2.45)" fill="none" stroke="#e6e6e6" stroke-linecap="round" stroke-linejoin="round" stroke-width="2"/>
  <path id="Path_629" data-name="Path 629" d="M15,3.5a15.9,15.9,0,0,1,9.719,9.719H16.767A1.767,1.767,0,0,1,15,11.452V3.5" transform="translate(11.505 2.685)" fill="none" stroke="#e6e6e6" stroke-linecap="round" stroke-linejoin="round" stroke-width="2"/>
</svg>
