<svg id="lifebuoy" xmlns="http://www.w3.org/2000/svg" width="30" height="30" viewBox="0 0 42.408 42.408">
  <path id="Path_522" data-name="Path 522" d="M0,0H42.408V42.408H0Z" fill="none"/>
  <path id="Path_523" data-name="Path 523" d="M15.068,15.068,8,15.068A7.068,7.068,0,1,0,15.068,8,7.068,7.068,0,0,0,8,15.068" transform="translate(6.136 6.136)" fill="none" stroke="#e6e6e6" stroke-linecap="round" stroke-linejoin="round" stroke-width="2"/>
  <path id="Path_524" data-name="Path 524" d="M18.9,18.9,3,18.9A15.9,15.9,0,1,0,18.9,3,15.9,15.9,0,0,0,3,18.9" transform="translate(2.301 2.301)" fill="none" stroke="#e6e6e6" stroke-linecap="round" stroke-linejoin="round" stroke-width="2"/>
  <path id="Path_525" data-name="Path 525" d="M15,15l5.919,5.919" transform="translate(11.505 11.505)" fill="none" stroke="#e6e6e6" stroke-linecap="round" stroke-linejoin="round" stroke-width="2"/>
  <path id="Path_526" data-name="Path 526" d="M11.569,15,5.65,20.919" transform="translate(4.334 11.505)" fill="none" stroke="#e6e6e6" stroke-linecap="round" stroke-linejoin="round" stroke-width="2"/>
  <path id="Path_527" data-name="Path 527" d="M5.65,5.65l5.919,5.919" transform="translate(4.334 4.334)" fill="none" stroke="#e6e6e6" stroke-linecap="round" stroke-linejoin="round" stroke-width="2"/>
  <path id="Path_528" data-name="Path 528" d="M20.919,5.65,15,11.569" transform="translate(11.505 4.334)" fill="none" stroke="#e6e6e6" stroke-linecap="round" stroke-linejoin="round" stroke-width="2"/>
</svg>
