<svg id="target-arrow" xmlns="http://www.w3.org/2000/svg" width="75.155" height="75.155" viewBox="0 0 75.155 75.155">
  <path id="Path_48" data-name="Path 48" d="M0,0H75.155V75.155H0Z" fill="none"/>
  <path id="Path_49" data-name="Path 49" d="M14.131,14.131m-3.131,0A3.131,3.131,0,1,0,14.131,11,3.131,3.131,0,0,0,11,14.131" transform="translate(23.446 23.446)" fill="none" stroke="#e6e6e6" stroke-linecap="round" stroke-linejoin="round" stroke-width="4"/>
  <path id="Path_50" data-name="Path 50" d="M22.657,7A15.657,15.657,0,1,0,38.314,22.657" transform="translate(14.92 14.92)" fill="none" stroke="#e6e6e6" stroke-linecap="round" stroke-linejoin="round" stroke-width="4"/>
  <path id="Path_51" data-name="Path 51" d="M34.322,3.175A28.183,28.183,0,1,0,59.189,28.055" transform="translate(6.387 6.391)" fill="none" stroke="#e6e6e6" stroke-linecap="round" stroke-linejoin="round" stroke-width="4"/>
  <path id="Path_52" data-name="Path 52" d="M15,12.394v9.394h9.394l9.394-9.394H24.394V3Z" transform="translate(31.972 6.394)" fill="none" stroke="#d2db08" stroke-linecap="round" stroke-linejoin="round" stroke-width="2"/>
  <path id="Path_53" data-name="Path 53" d="M21.394,9,12,18.394" transform="translate(25.578 19.183)" fill="none" stroke="#d2db08" stroke-linecap="round" stroke-linejoin="round" stroke-width="2"/>
</svg>
