<svg id="brightness-up" xmlns="http://www.w3.org/2000/svg" width="30" height="30" viewBox="0 0 43.954 43.954">
  <path id="Path_384" data-name="Path 384" d="M0,0H43.954V43.954H0Z" fill="none"/>
  <path id="Path_385" data-name="Path 385" d="M14.494,14.494,9,14.494A5.494,5.494,0,1,0,14.494,9,5.494,5.494,0,0,0,9,14.494" transform="translate(7.483 7.483)" fill="none" stroke="#e6e6e6" stroke-linecap="round" stroke-linejoin="round" stroke-width="2"/>
  <path id="Path_386" data-name="Path 386" d="M12,6.663V3" transform="translate(9.977 2.494)" fill="none" stroke="#e6e6e6" stroke-linecap="round" stroke-linejoin="round" stroke-width="2"/>
  <path id="Path_387" data-name="Path 387" d="M17,8.164,19.564,5.6" transform="translate(14.134 4.656)" fill="none" stroke="#e6e6e6" stroke-linecap="round" stroke-linejoin="round" stroke-width="2"/>
  <path id="Path_388" data-name="Path 388" d="M19,12h3.663" transform="translate(15.797 9.977)" fill="none" stroke="#e6e6e6" stroke-linecap="round" stroke-linejoin="round" stroke-width="2"/>
  <path id="Path_389" data-name="Path 389" d="M17,17l2.564,2.564" transform="translate(14.134 14.134)" fill="none" stroke="#e6e6e6" stroke-linecap="round" stroke-linejoin="round" stroke-width="2"/>
  <path id="Path_390" data-name="Path 390" d="M12,19v3.663" transform="translate(9.977 15.797)" fill="none" stroke="#e6e6e6" stroke-linecap="round" stroke-linejoin="round" stroke-width="2"/>
  <path id="Path_391" data-name="Path 391" d="M8.164,17,5.6,19.564" transform="translate(4.656 14.134)" fill="none" stroke="#e6e6e6" stroke-linecap="round" stroke-linejoin="round" stroke-width="2"/>
  <path id="Path_392" data-name="Path 392" d="M7.663,12H4" transform="translate(3.326 9.977)" fill="none" stroke="#e6e6e6" stroke-linecap="round" stroke-linejoin="round" stroke-width="2"/>
  <path id="Path_393" data-name="Path 393" d="M8.164,8.164,5.6,5.6" transform="translate(4.656 4.656)" fill="none" stroke="#e6e6e6" stroke-linecap="round" stroke-linejoin="round" stroke-width="2"/>
</svg>
