<svg id="trash" xmlns="http://www.w3.org/2000/svg" width="35.011" height="35.011" viewBox="0 0 35.011 35.011">
  <path id="Path_469" data-name="Path 469" d="M0,0H35.011V35.011H0Z" fill="none"/>
  <path id="Path_470" data-name="Path 470" d="M4,7H27.341" transform="translate(1.835 3.212)" fill="none" stroke="#e6e6e6" stroke-linecap="round" stroke-linejoin="round" stroke-width="2"/>
  <path id="Path_471" data-name="Path 471" d="M10,11v8.753" transform="translate(4.588 5.047)" fill="none" stroke="#e6e6e6" stroke-linecap="round" stroke-linejoin="round" stroke-width="2"/>
  <path id="Path_472" data-name="Path 472" d="M14,11v8.753" transform="translate(6.423 5.047)" fill="none" stroke="#e6e6e6" stroke-linecap="round" stroke-linejoin="round" stroke-width="2"/>
  <path id="Path_473" data-name="Path 473" d="M5,7,6.459,24.506a2.918,2.918,0,0,0,2.918,2.918h11.67a2.918,2.918,0,0,0,2.918-2.918L25.423,7" transform="translate(2.294 3.212)" fill="none" stroke="#e6e6e6" stroke-linecap="round" stroke-linejoin="round" stroke-width="2"/>
  <path id="Path_474" data-name="Path 474" d="M9,8.835V4.459A1.459,1.459,0,0,1,10.459,3h5.835a1.459,1.459,0,0,1,1.459,1.459V8.835" transform="translate(4.129 1.376)" fill="none" stroke="#e6e6e6" stroke-linecap="round" stroke-linejoin="round" stroke-width="2"/>
</svg>
