<svg id="users" xmlns="http://www.w3.org/2000/svg" width="30" height="30" viewBox="0 0 40 40">
  <path id="Path_398" data-name="Path 398" d="M0,0H40V40H0Z" fill="none"/>
  <path id="Path_399" data-name="Path 399" d="M11.6,9.6,5,9.6A6.6,6.6,0,1,0,11.6,3,6.6,6.6,0,0,0,5,9.6" transform="translate(3.372 1.953)" fill="none" stroke="#e6e6e6" stroke-linecap="round" stroke-linejoin="round" stroke-width="2"/>
  <path id="Path_400" data-name="Path 400" d="M3,24.907V21.6A6.6,6.6,0,0,1,9.6,15h6.6a6.6,6.6,0,0,1,6.6,6.6v3.3" transform="translate(1.953 10.14)" fill="none" stroke="#e6e6e6" stroke-linecap="round" stroke-linejoin="round" stroke-width="2"/>
  <path id="Path_401" data-name="Path 401" d="M16,3.13a6.6,6.6,0,0,1,0,12.8" transform="translate(10.702 2.038)" fill="none" stroke="#e6e6e6" stroke-linecap="round" stroke-linejoin="round" stroke-width="2"/>
  <path id="Path_402" data-name="Path 402" d="M22.953,24.809v-3.3A6.6,6.6,0,0,0,18,15.15" transform="translate(12.093 10.237)" fill="none" stroke="#e6e6e6" stroke-linecap="round" stroke-linejoin="round" stroke-width="2"/>
</svg>
